<svg xmlns="http://www.w3.org/2000/svg" width="19.92" height="22.389" viewBox="0 0 19.92 22.389">
  <g id="Group_404" data-name="Group 404" transform="translate(-1523.08 -52)">
    <g id="Group_393" data-name="Group 393" transform="translate(-4)">
      <g id="Group_392" data-name="Group 392">
        <path id="Path_1" data-name="Path 1" d="M66.715,19.353,65.433,4.917a.617.617,0,0,0-.614-.563H62.183a4.423,4.423,0,0,0-8.846,0H50.7a.614.614,0,0,0-.614.563L48.8,19.353c0,.018,0,.037,0,.055a3.19,3.19,0,0,0,3.361,2.981h11.2a3.19,3.19,0,0,0,3.361-2.981A.223.223,0,0,0,66.715,19.353ZM57.76,1.236a3.19,3.19,0,0,1,3.187,3.118H54.573A3.19,3.19,0,0,1,57.76,1.236Zm5.6,19.916h-11.2a1.972,1.972,0,0,1-2.124-1.717L51.263,5.595h2.069V7.472a.618.618,0,1,0,1.236,0V5.595h6.378V7.472a.618.618,0,1,0,1.236,0V5.595h2.069l1.232,13.841A1.975,1.975,0,0,1,63.359,21.152Z" transform="translate(1478.28 52)"/>
        <circle id="Ellipse_6" data-name="Ellipse 6" cx="2.5" cy="2.5" r="2.5" transform="translate(1542 54)" fill="#ff0e0e"/>
      </g>
    </g>
  </g>
</svg>
