<svg xmlns="http://www.w3.org/2000/svg" xmlns:xlink="http://www.w3.org/1999/xlink" width="70" height="70" viewBox="0 0 70 70">
  <defs>
    <clipPath id="clip-path">
      <rect id="Rectangle_43" data-name="Rectangle 43" width="70" height="70" transform="translate(525 2424)" fill="#729f48"/>
    </clipPath>
    <linearGradient id="linear-gradient" x1="0.5" x2="0.5" y2="1" gradientUnits="objectBoundingBox">
      <stop offset="0" stop-color="#8db661"/>
      <stop offset="1" stop-color="#729f48"/>
    </linearGradient>
  </defs>
  <g id="Group_398" data-name="Group 398" transform="translate(-525 -1848)">
    <g id="Group_397" data-name="Group 397">
      <g id="Group_396" data-name="Group 396">
        <g id="Group_395" data-name="Group 395">
          <g id="Icon" transform="translate(0 -576)" clip-path="url(#clip-path)">
            <g id="menu" transform="translate(525 2424)">
              <path id="Union_2" data-name="Union 2" d="M3376.05-2273.233a1.11,1.11,0,0,1-.328-.789v-2.232h-17.861v4.465h-2.233v-4.465h-3.349a5.589,5.589,0,0,1-5.582-5.582v-15.907a9.214,9.214,0,0,1-2.232.279v-2.233a6.627,6.627,0,0,0,6.7-6.7,1.116,1.116,0,0,1,1.116-1.116h4.466a4.472,4.472,0,0,0,4.323-3.349h-13.253a1.117,1.117,0,0,1-1.117-1.116v-2.887l-4.465,4.466v38.608H3340v-39.071a1.118,1.118,0,0,1,.328-.789l6.37-6.37v-17.4a5.588,5.588,0,0,1,5.582-5.582h51.35a5.588,5.588,0,0,1,5.581,5.582v53.583a5.591,5.591,0,0,1-4.465,5.468v4.578h-2.233v-21.771a1.673,1.673,0,0,0-1.672-1.672,1.674,1.674,0,0,0-1.672,1.67l0,9.493h-2.232v-9.49a1.674,1.674,0,0,0-1.672-1.672,1.675,1.675,0,0,0-1.677,1.672v9.49h-2.233v-9.49a1.674,1.674,0,0,0-1.672-1.672,1.675,1.675,0,0,0-1.677,1.672v9.49h-2.233v-25.119a1.674,1.674,0,0,0-1.672-1.672,1.675,1.675,0,0,0-1.677,1.672v30.7h-2.232v-5.122l-2.233,2.235v6.89l1.905,1.905-1.579,1.579Zm-27.119-25.4v16.8a3.353,3.353,0,0,0,3.349,3.349h23.442v-3.349a1.118,1.118,0,0,1,.326-.789l4.14-4.143v-22.42a3.909,3.909,0,0,1,3.9-3.905,3.91,3.91,0,0,1,3.91,3.905v12.114a3.869,3.869,0,0,1,1.672-.391,3.9,3.9,0,0,1,2.793,1.18,3.891,3.891,0,0,1,2.789-1.18,3.891,3.891,0,0,1,2.795,1.184,3.887,3.887,0,0,1,2.791-1.184,3.909,3.909,0,0,1,3.905,3.905v14.867a3.345,3.345,0,0,0,2.233-3.144v-53.583a3.353,3.353,0,0,0-3.349-3.349h-51.35a3.353,3.353,0,0,0-3.349,3.349v22.325h13.4a1.117,1.117,0,0,1,1.117,1.117,6.7,6.7,0,0,1-6.7,6.7h-3.416A8.792,8.792,0,0,1,3348.931-2298.633Zm20.094,16.8v-2.233h3.349v2.233Zm-15.629,0v-2.233h12.28v2.233Zm15.629-4.466v-2.232h3.349v2.232Zm-15.629,0v-2.232h12.28v2.232Zm15.629-4.465V-2293h3.349v2.233Zm-15.629,0V-2293h12.28v2.233Zm1.117-4.465a1.117,1.117,0,0,1-1.117-1.117v-5.581a1.117,1.117,0,0,1,1.117-1.117h16.745a1.117,1.117,0,0,1,1.116,1.117v5.581a1.116,1.116,0,0,1-1.116,1.117Zm1.116-2.233h14.512v-3.349h-14.512Zm43.536-4.465v-2.233h3.349v2.233Zm-8.93,0v-2.233h5.581v2.233Zm8.93-4.466v-2.232h3.349v2.232Zm-8.93,0v-2.232h5.581v2.232Zm-21.21,0v-2.232h3.349v2.232Zm30.14-4.465v-2.233h3.349v2.233Zm-8.93,0v-2.233h5.581v2.233Zm-21.21,0v-2.233h3.349v2.233Zm30.14-4.465v-2.233h3.349v2.233Zm-15.627,0v-2.233h12.279v2.233Zm-6.7,0v-21.21h2.232v21.21Zm-7.815,0v-2.233h3.349v2.233Zm-15.629,0v-2.233h12.28v2.233Zm45.769-4.466v-2.232h3.349v2.232Zm-15.627,0v-2.232h12.279v2.232Zm-14.512,0v-2.232h3.349v2.232Zm-15.629,0v-2.232h12.28v2.232Zm45.769-4.465v-2.233h3.349v2.233Zm-15.627,0v-2.233h12.279v2.233Zm-14.512,0v-2.233h3.349v2.233Zm-15.629,0v-2.233h12.28v2.233Zm31.257-4.465a1.116,1.116,0,0,1-1.116-1.117v-5.581a1.117,1.117,0,0,1,1.116-1.117H3401.4a1.117,1.117,0,0,1,1.116,1.117v5.581a1.116,1.116,0,0,1-1.116,1.117Zm1.116-2.233h14.512v-3.349h-14.512Zm-31.256,2.233a1.117,1.117,0,0,1-1.117-1.117v-5.581a1.117,1.117,0,0,1,1.117-1.117h16.745a1.117,1.117,0,0,1,1.116,1.117v5.581a1.116,1.116,0,0,1-1.116,1.117Zm1.116-2.233h14.512v-3.349h-14.512Z" transform="translate(-3339.605 2341)" fill="url(#linear-gradient)"/>
            </g>
          </g>
        </g>
      </g>
    </g>
  </g>
</svg>
