<svg xmlns="http://www.w3.org/2000/svg" xmlns:xlink="http://www.w3.org/1999/xlink" width="70" height="70" viewBox="0 0 70 70">
  <defs>
    <linearGradient id="linear-gradient" x1="-0.074" y1="0.44" x2="1.039" y2="0.72" gradientUnits="objectBoundingBox">
      <stop offset="0" stop-color="#8db661"/>
      <stop offset="1" stop-color="#3d6715"/>
    </linearGradient>
    <clipPath id="clip-path">
      <rect id="Rectangle_8" data-name="Rectangle 8" width="70" height="70" transform="translate(525 2424)" fill="url(#linear-gradient)"/>
    </clipPath>
    <linearGradient id="linear-gradient-2" x1="0.5" x2="0.5" y2="1" gradientUnits="objectBoundingBox">
      <stop offset="0" stop-color="#8db661"/>
      <stop offset="1" stop-color="#729f48"/>
    </linearGradient>
  </defs>
  <g id="Icon" transform="translate(-525 -2424)" clip-path="url(#clip-path)">
    <g id="scooter" transform="translate(525 2432.546)">
      <path id="Union_1" data-name="Union 1" d="M3798.9-2296.779h-23.559a1.367,1.367,0,0,1-1.367-1.367,1.367,1.367,0,0,1,1.367-1.367h17.731a7.888,7.888,0,0,1-1.944-5.19,7.925,7.925,0,0,1,.6-3.013H3790a6.756,6.756,0,0,1-5.425,2.74h-19.717a1.415,1.415,0,0,1,.027.273,7.939,7.939,0,0,1-7.93,7.93c-.052,0-.105,0-.158,0h-15.428a1.367,1.367,0,0,1-1.367-1.367,1.367,1.367,0,0,1,1.367-1.367h9.6a7.889,7.889,0,0,1-1.944-5.19,1.342,1.342,0,0,1,.028-.273h-7.684a1.368,1.368,0,0,1-1.367-1.367v-1.034a20.782,20.782,0,0,1,6.517-15.123l-3.027-3.027a4.108,4.108,0,0,1-3.49-4.056v-7.112a12.943,12.943,0,0,1,.1-1.595c0-.009,0-.016,0-.025a1.374,1.374,0,0,1,.064-.413,12.87,12.87,0,0,1,12.688-10.816h8.821a4.106,4.106,0,0,1,4.1,4.1v11.992a4.08,4.08,0,0,1,1.367-.235h4.99a4.106,4.106,0,0,1,4.1,4.1,4.1,4.1,0,0,1-2.057,3.553,4.105,4.105,0,0,1,.486,1.939v10.911h5.907a5.421,5.421,0,0,0,4.744-2.8,5.429,5.429,0,0,0,.676-2.615l.007-4.543a1.367,1.367,0,0,1,1.367-1.365h0a1.367,1.367,0,0,1,1.365,1.369l-.007,4.542a8.163,8.163,0,0,1-1.017,3.935,8.155,8.155,0,0,1-7.137,4.211h-7.275a1.367,1.367,0,0,1-1.367-1.367v-12.279a1.391,1.391,0,0,0-1.388-1.389h-9.7a18.125,18.125,0,0,0-18.1,17.77h2.808a11.417,11.417,0,0,1,4.31-7.667.026.026,0,0,0,.008-.007,11.378,11.378,0,0,1,7.089-2.448,11.5,11.5,0,0,1,11.4,10.122h16.215a4.016,4.016,0,0,0,3.494-2.041l6.494-11.569-3.432-15.507h-2.393v2.755a1.367,1.367,0,0,1-1.367,1.367,1.367,1.367,0,0,1-1.367-1.367v-2.755h-7.037a3.559,3.559,0,0,1-3.555-3.555,3.558,3.558,0,0,1,3.555-3.554h3.24a3.418,3.418,0,0,1,3.185-2.188h8.07a3.407,3.407,0,0,1,2.557,1.155,4.074,4.074,0,0,1,2.224-.659h2.735a1.368,1.368,0,0,1,1.367,1.367v5.469a1.367,1.367,0,0,1-1.367,1.366h-2.735a4.081,4.081,0,0,1-2.168-.621,3.416,3.416,0,0,1-2.152,1.187l3.187,14.394A13.41,13.41,0,0,1,3810-2309.084a1.367,1.367,0,0,1-1.367,1.367H3806.4a7.925,7.925,0,0,1,.6,3.013,7.939,7.939,0,0,1-7.93,7.93C3799.01-2296.774,3798.957-2296.777,3798.9-2296.779Zm-5.037-7.925a5.2,5.2,0,0,0,5.037,5.19h.158c.018,0,.035,0,.052,0a5.2,5.2,0,0,0,5.143-5.193,5.189,5.189,0,0,0-.962-3.013h-8.466A5.189,5.189,0,0,0,3793.867-2304.7Zm-42.11,0a5.2,5.2,0,0,0,5.037,5.19h.158c.018,0,.035,0,.052,0a5.2,5.2,0,0,0,5.143-5.193,1.434,1.434,0,0,1,.027-.273H3751.73A1.36,1.36,0,0,1,3751.758-2304.7Zm-.2-8.535a.094.094,0,0,0-.012.009,8.7,8.7,0,0,0-3.241,5.518h17.3a8.769,8.769,0,0,0-8.648-7.387A8.66,8.66,0,0,0,3751.558-2313.239Zm40.034,2.788h15.586a10.674,10.674,0,0,0-10.373-9.286Zm-42.962-13.8a20.672,20.672,0,0,1,1.9-1.228H3747.4Zm17.141-5.33a1.369,1.369,0,0,0,1.367,1.367h4.99a1.37,1.37,0,0,0,1.367-1.367,1.37,1.37,0,0,0-1.367-1.367h-4.99A1.369,1.369,0,0,0,3765.771-2329.585Zm-23.036-7.112v7.112a1.369,1.369,0,0,0,1.366,1.367h17.568a1.369,1.369,0,0,0,1.367-1.367v-15.859a1.368,1.368,0,0,0-1.367-1.367h-8.82a10.133,10.133,0,0,0-9.664,7.127H3757.7a1.368,1.368,0,0,1,1.367,1.367,1.367,1.367,0,0,1-1.367,1.367h-14.96C3742.738-2336.865,3742.734-2336.781,3742.734-2336.7Zm41.977-6.015v2.47a.68.68,0,0,0,.68.679h8.07a.68.68,0,0,0,.68-.679v-2.47a.681.681,0,0,0-.68-.68h-8.07A.681.681,0,0,0,3784.711-2342.712Zm-6.566,2.328a.821.821,0,0,0,.82.82h3.08a3.369,3.369,0,0,1-.068-.679v-.962h-3.012A.822.822,0,0,0,3778.145-2340.384Zm18.731-1.144a1.369,1.369,0,0,0,1.366,1.367h1.367v-2.735h-1.367A1.369,1.369,0,0,0,3796.875-2341.528Zm-27.965,44.348a1.378,1.378,0,0,1-.4-.967,1.378,1.378,0,0,1,.4-.967,1.38,1.38,0,0,1,.967-.4,1.385,1.385,0,0,1,.967.4,1.381,1.381,0,0,1,.4.967,1.377,1.377,0,0,1-.4.967,1.381,1.381,0,0,1-.967.4A1.376,1.376,0,0,1,3768.911-2297.18ZM3786-2328.6a1.365,1.365,0,0,1,1.365-1.367h0a1.367,1.367,0,0,1,1.367,1.367,1.368,1.368,0,0,1-1.367,1.367A1.37,1.37,0,0,1,3786-2328.6Z" transform="translate(-3740 2349.615)" fill="url(#linear-gradient-2)"/>
    </g>
  </g>
</svg>
